<svg width="41" height="40" viewBox="0 0 41 40" fill="none" xmlns="http://www.w3.org/2000/svg">
<g clip-path="url(#clip0)">
<rect x="0.0561523" width="40" height="40" fill="#C4C4C4"/>
<path d="M14.971 7.10877C16.205 5.90206 17.9159 5.28956 19.6176 5.11586C20.0392 5.04578 20.47 5.05492 20.8947 5.11586C21.5317 5.22556 22.181 5.40231 22.7041 5.7954C22.8426 5.92034 23.0396 5.88987 23.2119 5.89596C24.2797 5.89596 25.3752 6.25249 26.1445 7.00517C27.0646 7.89192 27.5231 9.1352 27.797 10.3541C28.3509 13.0235 28.2309 15.763 28.2709 18.469C28.2709 19.3953 28.2955 20.3248 28.4371 21.242C28.5171 21.8362 28.6648 22.4731 29.1079 22.9149C29.0771 23.4421 28.5479 23.7042 28.1324 23.9144C26.723 24.5391 25.1721 24.7402 23.6519 24.9231C23.6796 25.24 23.6519 25.566 23.7227 25.8769C24.0766 26.7575 24.929 27.2969 25.7414 27.7235C27.7385 28.7078 29.9757 29.238 31.7728 30.5971C32.1298 30.9018 32.5052 31.1974 32.8006 31.5692C33.5915 32.5077 34.0069 33.7205 34.0562 34.9333C24.7228 34.915 15.3895 34.9303 6.05615 34.9242C6.12385 33.6382 6.58544 32.3584 7.46862 31.4016C8.07176 30.7677 8.78568 30.2436 9.56115 29.8353C10.6136 29.2532 11.7552 28.8601 12.8631 28.403C13.7862 28.0313 14.7248 27.6534 15.5126 27.0379C15.8572 26.785 16.1465 26.4558 16.3434 26.078C16.5465 25.7245 16.4696 25.2979 16.525 24.9109C15.0479 24.728 13.5401 24.5208 12.1737 23.9053C11.7799 23.7011 11.2998 23.4543 11.226 22.9667C11.8445 22.2598 11.9183 21.2877 12.0353 20.404C12.2107 18.2922 12.1245 16.1652 12.3368 14.0565C12.383 13.313 12.5184 12.5786 12.6384 11.8442C12.9861 10.1042 13.6631 8.35815 14.971 7.10877Z" fill="white"/>
</g>
<defs>
<clipPath id="clip0">
<rect width="40" height="40" fill="white" transform="translate(0.0561523)"/>
</clipPath>
</defs>
</svg>
